<svg xmlns="http://www.w3.org/2000/svg" viewBox="7 89.891 599.51 599.76"><path fill="#FFF" d="M86.935 569.639V209.933h259.788v-78.686c-30.809-.833-57.453-1.249-79.935-1.249-65.363 0-129.894 3.123-193.592 9.367-18.734 1.666-34.451 9.472-47.149 23.419C13.349 176.73 7 193.071 7 211.807v355.959c0 18.734 6.349 35.075 19.047 49.022 12.698 13.946 28.415 21.753 47.149 23.418 63.698 6.245 128.229 9.368 193.592 9.368 65.364 0 129.894-3.123 193.592-9.368 18.734-1.665 34.451-9.472 47.148-23.418 12.698-13.947 19.047-30.288 19.047-49.022v-79.935c-11.657 11.241-38.302 32.265-79.935 63.073v18.734H86.935zm457.127-168.612c10.824-11.658 29.976-33.932 57.453-66.821 3.33-4.579 4.995-9.367 4.995-14.363s-1.665-9.783-4.995-14.363c-1.666-2.081-5.204-6.557-10.616-13.426-5.413-6.87-14.26-17.174-26.541-30.913a1715.606 1715.606 0 0 0-38.406-41.528c-13.322-13.946-29.247-28.83-47.773-44.651-18.526-15.82-36.533-29.559-54.019-41.216-7.91-4.579-16.028-4.996-24.355-1.249-8.742 4.996-13.114 11.865-13.114 20.608V249.9c-32.057 0-62.865 5.1-92.424 15.3s-54.122 22.586-73.689 37.157-35.388 29.143-47.461 43.714c-12.073 14.571-19.359 27.062-21.857 37.47-6.245 27.478 1.457 46.42 23.106 56.828 16.653 8.327 38.094 4.996 64.322-9.991.833-.417 6.245-3.435 16.237-9.056 9.992-5.62 15.82-8.847 17.486-9.68 1.665-.832 6.765-3.227 15.3-7.182s15.196-6.349 19.983-7.182c4.788-.832 11.657-2.289 20.608-4.371 8.951-2.082 18.11-3.435 27.478-4.059s19.672-.937 30.912-.937v98.669c0 8.742 4.372 15.612 13.114 20.607 8.743 4.164 16.861 3.748 24.355-1.248 37.884-25.394 77.852-60.365 119.901-104.912z"/></svg>
