<svg xmlns="http://www.w3.org/2000/svg" viewBox="6.688 89.671 600.134 600.48"><path fill="#BEBEBE" d="M596.519 343.23c-4.996-4.996-10.824-7.91-17.486-8.743-11.24-1.249-28.31-3.33-51.208-6.245-7.493-2.081-13.738-6.141-18.734-12.177-4.996-6.037-7.494-13.011-7.494-20.921 0-6.661 1.874-12.489 5.621-17.485 0-.417 10.407-14.155 31.224-41.217 4.164-5.412 6.245-11.553 6.245-18.422 0-6.87-2.29-13.011-6.869-18.423a267.281 267.281 0 0 0-40.592-40.592c-5.412-4.579-11.553-6.869-18.423-6.869-6.869 0-13.01 2.081-18.422 6.245-9.159 7.077-22.69 17.485-40.592 31.224-6.661 3.747-12.906 5.621-18.735 5.621-7.91 0-14.884-2.603-20.92-7.807-6.037-5.204-9.888-11.761-11.553-19.671l-6.245-49.959c-.833-6.662-3.747-12.49-8.743-17.486s-11.032-7.91-18.11-8.742c-19.567-2.082-38.718-2.082-57.453 0-7.077.832-13.114 3.746-18.11 8.742-4.996 4.996-7.91 10.824-8.743 17.486l-6.245 49.959c-1.249 7.91-4.996 14.467-11.241 19.671-6.245 5.204-13.323 7.807-21.233 7.807-7.078 0-13.739-2.082-19.983-6.245l-39.343-30.6c-5.413-4.164-11.553-6.245-18.423-6.245-6.869 0-13.01 2.29-18.422 6.869a267.281 267.281 0 0 0-40.592 40.592c-4.58 5.412-6.974 11.553-7.182 18.423-.208 6.869 1.978 13.01 6.557 18.422l29.976 39.343c4.58 5.829 6.869 12.282 6.869 19.359 0 8.327-2.706 15.612-8.118 21.857s-12.282 9.992-20.608 11.24l-48.71 6.245c-7.078.833-13.114 3.852-18.11 9.056-4.996 5.204-7.702 11.137-8.118 17.798-2.082 19.567-2.082 38.718 0 57.453.833 7.077 3.747 13.114 8.743 18.11 4.996 4.996 10.825 7.91 17.486 8.742l48.71 6.245c8.326.833 15.196 4.372 20.608 10.616 5.412 6.245 8.118 13.531 8.118 21.857 0 7.494-2.29 14.154-6.869 19.983l-29.976 39.343c-4.163 5.412-6.245 11.553-6.245 18.423 0 6.869 2.29 13.011 6.869 18.423a267.372 267.372 0 0 0 40.592 40.592c5.829 4.579 12.074 6.869 18.735 6.869 7.494 0 13.53-2.082 18.11-6.245l39.343-30.601c6.245-4.162 12.906-6.244 19.983-6.244 7.91 0 14.988 2.602 21.233 7.806 6.245 5.204 9.992 11.762 11.241 19.672 0 .416 2.082 17.069 6.245 49.959.833 6.661 3.747 12.489 8.743 17.485 4.996 4.996 11.033 7.91 18.11 8.743 12.49.833 22.065 1.249 28.727 1.249s16.237-.416 28.727-1.249c7.078-.833 13.114-3.747 18.11-8.743s7.91-10.824 8.743-17.485l6.245-49.959c1.665-7.91 5.516-14.468 11.553-19.672 6.036-5.204 13.01-7.806 20.92-7.806 7.494 0 13.739 1.873 18.735 5.62l40.592 31.225c4.579 4.163 10.616 6.245 18.11 6.245 7.493 0 13.738-2.29 18.734-6.869a267.327 267.327 0 0 0 40.592-40.592c4.579-5.412 6.869-11.554 6.869-18.423 0-6.87-2.081-13.011-6.245-18.423-20.816-27.061-31.224-40.8-31.224-41.216-3.747-4.996-5.621-11.032-5.621-18.11 0-7.91 2.498-14.884 7.494-20.92 4.996-6.037 11.241-9.889 18.734-11.554l51.208-6.245c6.662-.832 12.49-3.746 17.486-8.742s7.91-11.033 8.743-18.11c2.081-19.567 2.081-38.719 0-57.453-.833-7.076-3.747-13.112-8.743-18.109zM234.626 462.195c-19.775-19.775-29.663-43.818-29.663-72.128 0-28.311 9.888-52.354 29.663-72.129s43.818-29.663 72.128-29.663c28.311 0 52.354 9.888 72.129 29.663s29.663 43.818 29.663 72.129c0 28.31-9.888 52.353-29.663 72.128s-43.818 29.664-72.129 29.664c-28.309 0-52.352-9.888-72.128-29.664z"/></svg>
