<svg xmlns="http://www.w3.org/2000/svg" viewBox="5.604 80.352 599.905 599.76"><path fill="#BEBEBE" d="M477.49 632.994c6.244-1.666 11.553-4.789 15.924-9.368 4.372-4.579 6.766-9.991 7.182-16.236L526.2 430.658h49.335c8.326 0 15.403-2.914 21.232-8.742 5.828-5.828 8.742-12.906 8.742-21.232 0-7.494-2.706-14.364-8.118-20.608-21.232-30.392-45.171-59.535-71.816-87.429V130.903c0-5.828-1.873-10.616-5.62-14.363-3.747-3.746-8.535-5.62-14.363-5.62h-59.951c-5.828 0-10.616 1.874-14.363 5.62-3.747 3.747-5.62 8.535-5.62 14.363v65.572c-42.049-36.221-76.396-63.074-103.041-80.56-11.241-7.91-22.481-7.91-33.722 0-4.58 3.33-11.97 8.639-22.169 15.925-10.2 7.285-26.645 20.087-49.335 38.405a1434.498 1434.498 0 0 0-66.82 57.453c-21.857 19.984-45.692 44.131-71.504 72.441-25.813 28.31-48.294 56.204-67.445 83.682-7.078 9.159-7.911 19.359-2.498 30.6 6.245 10.824 15.196 16.236 26.853 16.236H85.31l24.98 176.731c2.082 13.738 9.992 22.273 23.73 25.604 58.286 11.656 115.53 17.485 171.734 17.485 55.373.002 112.617-5.827 171.736-17.483zm-111.784-62.449c-22.065 2.081-42.049 3.122-59.951 3.122s-37.886-1.041-59.951-3.122c-10.825-1.666-16.653-7.91-17.486-18.735l-4.996-79.935c0-5.828 1.874-10.824 5.621-14.988 4.163-4.162 8.951-6.244 14.363-6.244h124.898c5.412 0 10.2 2.082 14.363 6.244 3.747 4.164 5.62 9.16 5.62 14.988l-4.996 79.935c-.832 10.825-6.661 17.069-17.485 18.735z"/></svg>
