<svg xmlns="http://www.w3.org/2000/svg" viewBox="0.235 90.307 599.041 599.202"><path fill="#216DDF" d="M144.569 157.751c-43.09 44.964-64.635 99.086-64.635 162.367 0 32.058 6.661 66.404 19.984 103.041 13.322 36.637 28.102 68.278 44.339 94.923 16.236 26.645 35.075 53.289 56.516 79.935 21.441 26.645 36.325 44.339 44.651 53.081 8.327 8.743 14.988 15.613 19.984 20.608 12.906 11.657 23.834 17.59 32.786 17.798 8.951.209 20.296-5.725 34.035-17.798l19.359-19.358c12.906-12.906 28.519-31.329 46.837-55.268 18.318-23.939 36.637-50.063 54.955-78.374 18.318-28.31 33.931-60.472 46.837-96.483 12.905-36.012 19.358-70.047 19.358-102.104 0-63.281-21.545-117.403-64.635-162.367-43.09-44.963-94.818-67.444-155.186-67.444s-112.095 22.48-155.185 67.443zm81.808 225.753c-20.192-20.191-30.288-44.65-30.288-73.377s10.096-53.29 30.288-73.69c20.192-20.399 44.651-30.6 73.377-30.6s53.29 10.2 73.69 30.6c20.399 20.4 30.6 44.964 30.6 73.69s-10.2 53.186-30.6 73.377c-20.4 20.191-44.964 30.288-73.69 30.288s-53.185-10.097-73.377-30.288z"/></svg>
