<svg xmlns="http://www.w3.org/2000/svg" viewBox="0.063 90.235 599.385 599.04"><path fill="#BEBEBE" d="M525.196 437.216c-5.829-3.331-16.861-8.327-33.099-14.987-10.408-4.164-17.901-7.286-22.481-9.367-4.579-2.082-9.992-5.309-16.236-9.68-6.245-4.372-9.992-8.847-11.241-13.427-2.914-9.576 1.874-23.314 14.363-41.217 40.8-63.281 47.67-117.195 20.608-161.742-10.408-17.069-24.147-30.393-41.217-39.968s-36.012-14.363-56.828-14.363c-17.485 0-31.953 3.539-43.402 10.616-11.449 7.078-23.002 18.11-34.659 33.098 26.646 12.074 48.71 32.891 66.196 62.449 9.575 15.404 15.924 32.682 19.047 51.833 3.122 19.15 1.353 43.09-5.309 71.816s-19.775 58.494-39.343 89.302c2.498.833 5.829 2.29 9.992 4.372 16.236 5.828 29.768 11.865 40.592 18.109 37.886 23.314 65.779 53.914 83.682 91.801 65.779-1.666 101.584-3.955 107.412-6.87 5.412-.833 9.783-3.538 13.114-8.118 2.914-4.996 3.747-9.992 2.498-14.988-8.742-41.216-33.305-74.106-73.689-98.669zm-189.22 207.955c33.723-1.249 56.412-2.498 68.069-3.747s18.318-2.082 19.983-2.498c5.412-.416 9.784-3.122 13.114-8.118 3.331-4.579 4.372-9.575 3.123-14.987-9.576-41.217-34.139-74.106-73.69-98.67-4.995-2.914-16.028-7.91-33.098-14.987-10.408-4.163-17.902-7.286-22.481-9.368-4.58-2.081-9.992-5.308-16.237-9.68-6.245-4.371-9.992-8.846-11.241-13.426-2.915-9.159 1.665-22.898 13.739-41.217 40.799-63.697 47.877-117.612 21.233-161.742-10.408-17.069-24.251-30.393-41.529-39.968-17.278-9.575-36.325-14.363-57.141-14.363-20.4 0-39.239 4.788-56.516 14.363-17.278 9.575-31.121 22.898-41.529 39.968-26.645 44.13-19.567 98.045 21.233 161.742 12.073 18.318 16.653 32.058 13.739 41.217-1.249 4.58-4.996 9.055-11.241 13.426-6.245 4.372-11.657 7.599-16.237 9.68-4.58 2.082-12.074 5.205-22.482 9.368-17.069 7.077-28.102 12.073-33.098 14.987-39.967 24.563-64.323 57.453-73.065 98.67-1.249 5.828-.417 10.824 2.498 14.987 3.331 4.996 7.702 7.702 13.114 8.118 1.665.416 8.222 1.249 19.671 2.498s34.035 2.498 67.757 3.747c33.722 1.249 72.44 1.874 116.155 1.874s82.434-.625 116.157-1.874z"/></svg>
