<svg xmlns="http://www.w3.org/2000/svg" viewBox="-0.23 89.483 599.97 600.026"><path fill="#BEBEBE" d="M581.4 299.937c-23.314-10.408-82.225-17.278-176.731-20.608-34.139-99.086-62.24-159.453-84.306-181.103-5.828-5.828-12.698-8.742-20.608-8.742-7.494 0-14.571 2.914-21.232 8.742-21.649 21.649-49.543 82.017-83.682 181.103-94.506 3.33-153.417 10.2-176.73 20.608-7.91 2.914-13.323 8.742-16.237 17.485-3.331 8.743-2.706 17.069 1.874 24.979 20.4 37.47 63.906 84.515 130.518 141.135-17.485 72.024-27.894 129.686-31.224 172.983-.833 11.657 3.747 20.816 13.739 27.478 9.575 6.661 19.567 7.286 29.975 1.874 7.078-4.164 18.527-9.992 34.347-17.486 56.204-27.894 95.755-49.127 118.653-63.697 22.898 14.57 62.449 35.804 118.653 63.697 15.82 7.494 27.27 13.322 34.347 17.486 4.996 2.081 9.576 3.122 13.739 3.122 5.412 0 10.824-1.665 16.236-4.996 9.992-6.661 14.571-15.82 13.739-27.478-3.331-43.298-13.739-100.959-31.225-172.983 66.612-56.62 110.118-103.665 130.519-141.135 4.579-7.91 5.204-16.236 1.873-24.979-2.914-8.327-8.326-14.155-16.237-17.485z"/></svg>
