<svg xmlns="http://www.w3.org/2000/svg" viewBox="0.235 90.235 599.04 599.04"><path fill="#083D8B" d="M299.755 489.674c-32.473 0-59.743-8.326-81.808-24.979L19.984 312.943v278.522c0 4.996 1.665 9.263 4.996 12.802s7.286 5.725 11.865 6.558c87.012 12.489 174.649 18.734 262.91 18.734 88.678 0 176.106-6.245 262.286-18.734 4.996-.833 9.159-3.019 12.489-6.558 3.331-3.539 4.996-7.806 4.996-12.802V312.943L381.563 464.694c-22.065 16.654-49.334 24.98-81.808 24.98zm-44.963-78.686c11.657 9.159 26.645 13.738 44.963 13.738s33.307-4.579 44.964-13.738l212.95-161.118c11.657-11.241 18.943-22.273 21.857-33.098v-28.727c0-4.996-1.665-9.264-4.996-12.803-3.33-3.538-7.493-5.725-12.489-6.557-86.18-12.49-173.608-18.735-262.286-18.735-88.677 0-176.314 6.245-262.91 18.735-4.58.832-8.535 3.019-11.865 6.557-3.331 3.539-4.996 7.807-4.996 12.803v28.727c2.914 10.824 10.2 21.856 21.857 33.098l212.951 161.118z"/></svg>
