<svg xmlns="http://www.w3.org/2000/svg" viewBox="18.062 108.955 561.464 561.6"><path fill="#FFF" d="M318.49 513.404c-27.895-17.07-54.331-38.095-79.311-63.074-23.73-23.314-44.547-49.751-62.449-79.311-5.412-8.742-4.58-17.069 2.498-24.979l59.327-58.702c4.996-4.995 7.494-10.408 7.494-16.236 0-3.33-1.041-7.077-3.122-11.241l-76.188-138.637c-4.163-7.493-10.2-11.24-18.11-11.24-42.049 3.747-73.273 15.82-93.673 36.221-19.151 19.15-30.808 43.922-34.971 74.313-4.164 30.393-1.562 62.865 7.806 97.421 9.367 34.555 25.292 70.567 47.773 108.036 22.481 37.47 49.959 72.649 82.433 105.539 43.714 43.715 90.447 77.645 140.198 101.792 49.751 24.147 96.067 36.221 138.949 36.221 43.298 0 77.646-12.698 103.041-38.095 23.314-22.897 36.429-53.081 39.343-90.551 0-8.326-3.747-14.571-11.24-18.734l-138.637-69.943-10.617-3.746c-6.661 0-12.073 2.706-16.236 8.118l-59.326 53.706c-7.496 7.493-15.823 8.534-24.982 3.122z"/></svg>
